HIERARCHY
ROOT Hips
{
	OFFSET -3.958830 18.904000 13.208200
	CHANNELS 6 Xposition Yposition Zposition Zrotation Yrotation Xrotation 
	JOINT LHipJoint
	{
		OFFSET 0.000000 0.000000 0.000000
		CHANNELS 3 Zrotation Yrotation Xrotation
		JOINT LeftUpLeg
		{
			OFFSET 1.800000 -1.400000 0.085000
			CHANNELS 3 Zrotation Yrotation Xrotation
			JOINT LeftLeg
			{
				OFFSET 2.215000 -6.000000 0.000000
				CHANNELS 3 Zrotation Yrotation Xrotation
				JOINT LeftFoot
				{
					OFFSET 2.500000 -6.900000 0.000000
					CHANNELS 3 Zrotation Yrotation Xrotation
					JOINT LeftToeBase
					{
						OFFSET 0.200000 -0.500000 1.950000
						CHANNELS 3 Zrotation Yrotation Xrotation
						End Site
						{
							OFFSET 0.000000 0.000000 0.000000
						}
					}
				}
			}
		}
	}
	JOINT RHipJoint
	{
		OFFSET 0.000000 0.000000 0.000000
		CHANNELS 3 Zrotation Yrotation Xrotation
		JOINT RightUpLeg
		{
			OFFSET -1.800000 -1.400000 0.085000
			CHANNELS 3 Zrotation Yrotation Xrotation
			JOINT RightLeg
			{
				OFFSET -2.215000 -6.000000 0.000000
				CHANNELS 3 Zrotation Yrotation Xrotation
				JOINT RightFoot
				{
					OFFSET -2.500000 -6.900000 0.000000
					CHANNELS 3 Zrotation Yrotation Xrotation
					JOINT RightToeBase
					{
						OFFSET -0.200000 -0.500000 1.950000
						CHANNELS 3 Zrotation Yrotation Xrotation
						End Site
						{
							OFFSET 0.000000 0.000000 0.000000
						}
					}
				}
			}
		}
	}
	JOINT LowerBack
	{
		OFFSET 0.000000 0.000000 0.000000
		CHANNELS 3 Zrotation Yrotation Xrotation
		JOINT Spine
		{
			OFFSET -0.087000 1.940000 -0.288900
			CHANNELS 3 Zrotation Yrotation Xrotation
			JOINT Spine1
			{
				OFFSET 0.000000 1.950000 0.060000
				CHANNELS 3 Zrotation Yrotation Xrotation
				JOINT Neck
				{
					OFFSET 0.000000 0.000000 0.000000
					CHANNELS 3 Zrotation Yrotation Xrotation
					JOINT Neck1
					{
						OFFSET 0.000000 1.600000 0.340000
						CHANNELS 3 Zrotation Yrotation Xrotation
						JOINT Head
						{
							OFFSET 0.000000 1.667000 -0.240000
							CHANNELS 3 Zrotation Yrotation Xrotation
							End Site
							{
								OFFSET 0.000000 0.000000 0.000000
							}
						}
					}
				}
				JOINT LeftShoulder
				{
					OFFSET 0.000000 0.000000 0.000000
					CHANNELS 3 Zrotation Yrotation Xrotation
					JOINT LeftArm
					{
						OFFSET 2.700000 1.550000 -0.730000
						CHANNELS 3 Zrotation Yrotation Xrotation
						JOINT LeftForeArm
						{
							OFFSET 5.450000 0.000000 0.000000
							CHANNELS 3 Zrotation Yrotation Xrotation
							JOINT LeftHand
							{
								OFFSET 3.450000 0.000000 0.000000
								CHANNELS 3 Zrotation Yrotation Xrotation
								JOINT LeftHandIndex1
								{
									OFFSET 0.750000 0.000000 0.000000
									CHANNELS 3 Zrotation Yrotation Xrotation
									End Site
									{
										OFFSET 0.000000 0.000000 0.000000
									}
								}
							}
						}
					}
				}
				JOINT RightShoulder
				{
					OFFSET 0.000000 0.000000 0.000000
					CHANNELS 3 Zrotation Yrotation Xrotation
					JOINT RightArm
					{
						OFFSET -2.700000 1.550000 -0.730000
						CHANNELS 3 Zrotation Yrotation Xrotation
						JOINT RightForeArm
						{
							OFFSET -5.450000 0.000000 0.000000
							CHANNELS 3 Zrotation Yrotation Xrotation
							JOINT RightHand
							{
								OFFSET -3.450000 0.000000 0.000000
								CHANNELS 3 Zrotation Yrotation Xrotation
								JOINT RightHandIndex1
								{
									OFFSET -0.750000 0.000000 0.000000
									CHANNELS 3 Zrotation Yrotation Xrotation
									End Site
									{
										OFFSET 0.000000 0.000000 0.000000
									}
								}
							}
						}
					}
				}
			}
		}
	}
}
MOTION
Frames: 10
Frame Time: 0.016667
17.120130 16.269750 -21.682780 -5.881230 58.261872 -13.782203 -15.566180 9.601176 6.560541 -37.596651 -22.249729 -0.172890 34.298164 -15.823290 32.923305 0.040222 6.816500 2.239866 1.055210 1.355340 0.107630 19.043959 -10.344902 -1.077991 -18.945077 -21.296455 -23.750441 4.196460 -22.470533 44.745553 -1.440744 -8.701184 0.969189 1.141500 0.653140 0.086030 -5.307295 -1.661942 -10.227510 3.480850 -13.573582 14.530780 16.399673 -21.854364 59.053192 -34.025570 13.353424 -46.733689 16.110223 -16.412344 22.288726 10.732480 -19.300330 -23.238770 92.782799 -38.762284 -47.932029 4.913727 -31.949161 159.896294 -10.765406 -7.366468 -3.122814 -0.118735 -3.477095 0.259330 0.075080 0.035090 0.558290 -41.028887 28.962294 13.836804 46.380183 -6.004352 -4.610306 -8.820160 -2.693025 -0.685479 2.311592 -1.588856 -0.179400 1.010810 -0.061010 0.361600 
17.024370 16.409370 -21.563370 7.118948 51.842590 -7.048070 -15.946879 11.676424 6.222986 -36.792253 -7.922951 8.555489 39.289468 -5.324657 0.884837 -0.362355 5.245035 2.789488 0.976660 1.244680 0.028990 18.150266 -9.782153 0.553341 -24.903772 -17.065535 -22.021150 6.602899 -20.165308 42.839654 -1.212801 -8.544012 0.999316 1.131830 0.750730 0.068280 -2.690268 -3.190260 -8.340870 -9.995147 -5.043316 13.076263 20.082040 -6.000500 57.074374 -21.101995 9.268835 -36.542586 18.582359 -18.556107 23.474536 12.044410 -20.031470 -21.971750 53.246920 -40.463437 5.773213 67.954676 -30.602858 -158.633328 11.731629 -5.002833 -2.492896 0.320670 2.324145 0.239280 0.120820 -0.067080 0.518250 -19.619307 26.152197 16.066545 46.158365 -11.668643 -7.775454 -21.171847 -9.435867 0.392923 2.635847 -1.653807 -0.247880 1.048560 0.041600 0.356630 
16.907820 16.449870 -21.377110 6.320218 41.145511 -8.224505 -16.049888 12.267368 5.784202 -32.235129 -5.385000 7.595379 41.636549 -2.748057 -4.772010 -0.332285 5.413715 2.722929 0.738090 0.770890 0.330390 17.885958 -9.753392 0.955545 -19.705134 -9.577453 -23.618584 5.651292 -15.915936 43.206448 -0.998273 -7.623695 1.313514 0.752090 0.457150 0.127660 -1.551847 -4.213377 -8.134501 -11.802704 -0.825276 16.662635 5.711260 -3.581415 40.666881 -0.494710 8.734416 -28.034818 13.672865 -19.797394 29.015926 5.491800 -16.586090 -23.610800 4.265943 -32.029476 24.565587 80.976807 -51.528778 -166.087207 5.544749 -8.178804 -2.370471 0.206321 3.641510 0.575240 0.055120 0.111310 0.266260 -6.516421 25.930209 15.420883 33.592945 -8.356627 -3.988113 -18.668107 -5.639049 0.638227 2.479061 -1.402995 -0.350280 0.836470 0.048350 0.029500 
16.653370 16.680670 -21.149110 12.774526 33.514762 -8.432388 -16.468806 14.656258 5.340384 -21.877496 3.469047 10.852935 13.546926 2.695692 -15.490781 -0.444284 5.144761 2.824388 1.066600 1.236350 0.394660 17.293302 -9.367340 0.455499 -15.862572 -6.055833 -18.334138 -3.180829 -8.136682 39.884215 -0.669239 -5.857767 1.940263 1.085830 0.496900 0.130500 0.251832 -7.701167 -8.638551 -24.996040 5.651852 15.719338 11.058747 2.641814 45.902000 -0.648235 8.233188 -30.866068 13.170994 -15.611700 30.944842 6.502770 -14.880580 -23.519960 15.009652 -28.524187 17.775986 74.843690 -44.103244 -170.925478 1.255629 -9.969577 -2.580435 -2.094620 3.256729 0.437980 0.091110 0.117850 0.432370 -15.819621 32.617129 18.614722 25.801747 -8.706969 -5.569409 15.685127 -16.015129 -7.756250 2.104832 -0.288363 -0.263380 0.916280 -0.098050 0.128680 
16.376350 16.753380 -20.884640 10.918004 20.317777 -8.680915 -16.337293 13.649790 4.867772 -4.119018 1.316808 12.650974 -18.479405 0.887864 -20.062568 0.058683 6.365812 2.347924 1.169860 1.337770 0.607720 17.631252 -9.205143 0.822515 -5.163978 -0.413516 -18.747973 -10.737841 -1.767696 38.300020 -0.767332 -5.061385 2.187840 0.999450 0.134280 0.339810 -0.869800 -6.326607 -6.978048 -25.448795 6.493898 9.821036 12.580928 0.445649 28.353829 1.722641 10.121473 -13.060364 14.097218 -19.060503 27.566997 0.690680 -12.190230 -23.361090 1.830280 -34.781554 -15.898710 -0.446302 -54.672672 2.115790 5.865849 -16.201880 -0.921835 -3.893019 3.029366 0.428170 0.044450 0.334940 0.358940 -6.900383 33.531439 25.640445 21.286673 -9.577726 -0.485810 0.529177 -14.306902 -1.526287 2.526764 -1.266850 -0.007510 0.477500 -0.262210 0.046340 
16.355420 16.835290 -20.763200 13.228916 23.599256 -12.803432 -16.226995 13.716661 5.206192 -1.017818 1.900532 19.362375 -25.221198 1.263640 -18.995744 0.740245 7.106520 2.225418 0.878040 1.002440 0.421120 17.581461 -9.797709 0.576196 -10.714752 -1.879603 -10.478427 -7.673192 -3.532280 35.346314 -0.697478 -5.049930 2.361871 0.625860 0.104710 0.309640 -1.038211 -5.746458 -7.219134 -22.880357 5.267122 22.556529 6.477332 -1.563017 26.458039 3.587380 4.834705 -17.220088 7.721411 -15.353052 24.980105 1.857690 -11.315900 -21.955050 7.642049 -20.588739 -1.777052 2.919096 -14.867303 -13.012139 37.466131 -65.812303 -23.024275 -2.993051 2.980144 0.399140 -0.025000 0.327770 0.354160 -16.060158 25.413657 21.984404 26.347561 -7.031522 -1.667723 -8.455817 -5.107619 -0.154133 2.648362 -1.428839 0.054380 0.293830 -0.286630 0.114000 
16.236150 16.943890 -20.713800 10.894612 12.980434 -15.195242 -16.111899 13.100023 5.070830 3.314936 2.752303 22.328688 -27.373047 0.749502 -22.752899 0.791173 7.787233 2.175679 0.869720 1.135380 0.194980 17.803255 -9.637732 0.919946 -5.123724 0.335000 -8.512992 -9.937149 -1.319683 32.020541 -0.482432 -4.967297 2.509757 0.896160 0.620390 0.313410 -1.589258 -4.460002 -7.354406 -16.732855 0.491628 23.252027 -5.790293 -0.614753 34.518175 7.718744 1.468234 -18.408990 4.556113 -5.171218 15.331974 2.510920 -5.883920 -13.814560 19.627075 -9.751032 3.128129 -10.214494 4.622151 -14.508876 73.596602 -55.759025 -45.632499 -3.646244 2.870460 -0.016400 0.393760 -0.022680 0.528920 -34.578749 28.486174 22.168924 32.645888 15.125777 -2.375236 -6.534162 -21.323516 -1.383940 3.102141 -1.385622 -0.060600 0.496980 -0.235390 0.273380 
16.270140 16.955470 -20.443950 3.077499 12.516203 -4.720336 -15.814387 11.549068 6.009826 15.695054 -1.779787 11.567760 -37.726420 -0.419352 -22.739879 1.120023 8.022505 2.076465 0.456910 0.460510 0.266210 17.956533 -9.609502 1.834617 -0.095349 2.782692 -18.855578 -1.719264 -4.194087 30.672321 -0.361452 -4.158472 2.776546 0.279340 0.281710 0.357580 -2.314231 -1.943555 -8.828151 -1.172698 -4.643451 20.741860 -4.013894 -3.891647 3.050012 7.256650 3.131533 -15.101555 5.367759 -10.827890 25.905713 -7.823040 -6.477860 -10.389610 0.461378 -7.386796 -0.260584 1.091365 5.193900 -4.599752 41.881009 -67.667689 -21.658234 -3.343582 2.921865 0.193080 0.206430 0.110500 0.254130 -16.605615 13.301774 15.577990 14.159813 6.683728 1.908276 -7.106180 -3.679752 -0.325565 2.746984 -1.407851 -0.006540 0.149680 -0.154370 0.101920 
16.150170 17.123970 -20.220700 5.798387 11.617771 -0.545409 -15.732307 12.540821 4.665146 11.968064 -0.777517 5.299383 -26.430345 4.426815 -9.540427 0.594517 6.697950 2.447435 0.509970 0.487570 0.383800 17.808139 -10.330436 2.062817 -2.825868 1.344495 -17.465191 1.017106 -3.937108 19.714249 -0.249684 -3.087693 3.133797 0.269710 0.132400 0.360070 -2.238141 -1.855778 -8.115398 -6.241370 -1.920974 14.732300 0.117893 -2.366785 -0.777644 7.202550 5.499813 -13.495170 8.446596 -14.734351 28.770592 -11.081380 -8.143770 -11.815950 -1.262314 -6.707936 -0.739671 4.667457 -1.346252 -1.205519 34.113251 -64.915773 -14.751376 -3.374591 3.056756 0.289620 0.118250 0.215080 0.227630 -13.980482 8.960204 13.921688 10.956938 2.154871 0.840298 -7.992732 1.726748 -0.458474 2.660566 -1.411831 0.012860 0.113660 -0.210200 0.052140 
16.041320 17.280570 -20.080270 4.301919 10.988221 0.901401 -15.615455 13.468981 3.360202 9.671669 -0.307978 0.389328 -9.329046 4.996546 0.803363 0.011119 4.760788 3.072817 0.415000 0.366970 0.344470 17.755365 -10.652815 2.751805 -2.999800 0.977742 -14.384400 6.457772 -4.155560 9.605439 -0.241101 -2.945293 3.216326 0.182650 0.140240 0.377580 -2.357737 -2.125757 -7.798096 -3.873575 -2.341619 12.633674 -0.093852 -2.415988 -2.014303 7.003634 6.574795 -13.020654 10.025026 -15.392414 28.970945 -12.111960 -7.963310 -10.448330 -3.077594 -7.652360 -0.231473 8.472421 -1.627740 -0.051922 28.811581 -60.592078 -10.206699 -3.512988 3.143684 0.275700 0.136070 0.195210 0.181540 -11.529975 7.446821 13.170475 7.444656 -2.098367 0.097462 -9.046643 6.395649 -0.515075 2.582966 -1.443017 0.015970 0.079670 -0.152840 0.043610 
